Coordinates
version=1
nRows=12
nColumns=46
inDegrees=yes

Units are S.I. units (second, meters, Newtons, ...)
Angles are in degrees.

endheader
time	pelvis_tilt	pelvis_list	pelvis_rotation	pelvis_tx	pelvis_ty	pelvis_tz	bb_angle	bb_tx	bb_ty	bb_tz	hip_flexion_r	hip_adduction_r	hip_rotation_r	knee_angle_r	knee_angle_r_beta	ankle_angle_r	subtalar_angle_r	mtp_angle_r	crank_angle_r	hip_flexion_l	hip_adduction_l	hip_rotation_l	knee_angle_l	knee_angle_l_beta	ankle_angle_l	subtalar_angle_l	mtp_angle_l	crank_angle_l	lumbar_extension	lumbar_bending	lumbar_rotation	arm_flex_r	arm_add_r	arm_rot_r	elbow_flex_r	pro_sup_r	wrist_flex_r	wrist_dev_r	arm_flex_l	arm_add_l	arm_rot_l	elbow_flex_l	pro_sup_l	wrist_flex_l	wrist_dev_l
      0.00000000	    -23.05248622	     -3.30369333	      2.80647165	      0.10143698	      1.13230964	     -0.27205904	      0.00000000	      0.50000000	      0.00000000	      0.25000000	     60.06343357	     -6.53589862	     -7.18555183	     70.21415603	      1.22546820	     12.56035428	     -2.32602792	      0.00000000	      0.00000000	     92.90839069	     -2.47447190	      3.67614331	     85.62832205	      1.49449615	      3.68681246	     -9.10225266	      0.00000000	      0.00000000	    -62.62196007	      8.73414570	     37.51261377	     77.29114654	    -35.55133475	    -88.20216740	      6.12427869	      5.45551550	      0.00000000	      0.00000000	     89.88300168	     25.41864013	     15.28130791	     54.34892045	     15.23791971	      0.00000000	      0.00000000
      0.00500000	    -23.02284298	     -3.32683517	      2.76680183	      0.10122361	      1.13231592	     -0.27186913	      0.00000000	      0.50000000	      0.00000000	      0.25000000	     60.08482467	     -6.47928258	     -7.17680136	     70.29126559	      1.22681402	     12.55004423	     -2.34719653	      0.00000000	      0.00000000	     92.83984164	     -2.58738802	      3.66601685	     85.54964587	      1.49312299	      3.77288571	     -8.93198580	      0.00000000	      0.00000000	    -62.66099896	      8.71730814	     37.54209052	     77.32042757	    -35.52907785	    -88.18111255	      6.13444953	      5.35952058	      0.00000000	      0.00000000	     89.88337503	     25.37195226	     15.27651557	     54.29924978	     15.74867352	      0.00000000	      0.00000000
      0.01000000	    -23.00476427	     -3.33874309	      2.79090934	      0.10095835	      1.13235142	     -0.27198690	      0.00000000	      0.50000000	      0.00000000	      0.25000000	     60.11244354	     -6.51877699	     -7.20874422	     70.36800872	      1.22815344	     12.55972112	     -2.31341866	      0.00000000	      0.00000000	     92.77534491	     -2.49967311	      3.70101339	     85.44022800	      1.49121329	      3.73784157	     -9.10483212	      0.00000000	      0.00000000	    -62.68616777	      8.77135111	     37.52456718	     77.36989693	    -35.49341129	    -88.20594432	      6.17588609	      5.43198146	      0.00000000	      0.00000000	     89.88372920	     25.27748500	     15.36341989	     54.44443337	     15.20478106	      0.00000000	      0.00000000
      0.01500000	    -22.93515115	     -3.30796178	      2.78515816	      0.10073248	      1.13254229	     -0.27185122	      0.00000000	      0.50000000	      0.00000000	      0.25000000	     60.09171167	     -6.52442454	     -7.16699286	     70.45138020	      1.22960855	     12.57596196	     -2.29143303	      0.00000000	      0.00000000	     92.63728876	     -2.57277575	      3.64245444	     85.32241710	      1.48915710	      3.80338183	     -8.96325076	      0.00000000	      0.00000000	    -62.76644872	      8.70978427	     37.59641049	     77.41471807	    -35.68797748	    -88.08079167	      5.82761172	      6.16153920	      0.00000000	      0.00000000	     89.88429742	     25.40659326	     15.57403489	     54.13665869	     16.34377189	      0.00000000	      0.00000000
      0.02000000	    -22.96019979	     -3.43342524	      2.72168653	      0.10046950	      1.13232174	     -0.27201002	      0.00000000	      0.50000000	      0.00000000	      0.25000000	     60.15462040	     -6.41679775	     -7.24110117	     70.48201514	      1.23014323	     12.55193061	     -2.35443470	      0.00000000	      0.00000000	     92.66263629	     -2.61382750	      3.78963042	     85.28003182	      1.48841734	      3.85933538	     -8.93081219	      0.00000000	      0.00000000	    -62.75308500	      8.82061069	     37.62982946	     77.43338519	    -35.46900712	    -88.21726268	      6.22736816	      5.35178559	      0.00000000	      0.00000000	     89.88442789	     25.16964913	     15.33957459	     54.52818754	     15.32423621	      0.00000000	      0.00000000
      0.02500000	    -22.91049978	     -3.42321754	      2.70680887	      0.10024870	      1.13246966	     -0.27200469	      0.00000000	      0.50000000	      0.00000000	      0.25000000	     60.14338108	     -6.42462502	     -7.23186918	     70.53894052	      1.23113676	     12.55460755	     -2.31011237	      0.00000000	      0.00000000	     92.57099578	     -2.65440714	      3.75330064	     85.19745747	      1.48697615	      3.87999671	     -8.85380270	      0.00000000	      0.00000000	    -62.83425974	      8.80981956	     37.59968279	     77.51988511	    -35.41162899	    -88.20709559	      6.29875619	      5.24195290	      0.00000000	      0.00000000	     89.88474881	     25.13774546	     15.57742788	     54.42732254	     15.30415060	      0.00000000	      0.00000000
      0.03000000	    -22.86072674	     -3.41694455	      2.71471137	      0.10006925	      1.13267347	     -0.27205914	      0.00000000	      0.50000000	      0.00000000	      0.25000000	     60.10988074	     -6.45986418	     -7.25917427	     70.56697365	      1.23162603	     12.56537799	     -2.27071764	      0.00000000	      0.00000000	     92.45784610	     -2.65433179	      3.73149406	     85.08638925	      1.48503764	      3.89890861	     -8.85141341	      0.00000000	      0.00000000	    -62.89732277	      8.76033966	     37.80015661	     77.55194174	    -35.91965723	    -87.94569458	      5.60127414	      6.25354673	      0.00000000	      0.00000000	     89.88555663	     25.37601412	     15.60593116	     54.26078509	     16.29307461	      0.00000000	      0.00000000
      0.03500000	    -22.80884967	     -3.46731766	      2.68834903	      0.09977464	      1.13271878	     -0.27201629	      0.00000000	      0.50000000	      0.00000000	      0.25000000	     60.10016099	     -6.39929543	     -7.27609455	     70.61711892	      1.23250123	     12.52971723	     -2.34227199	      0.00000000	      0.00000000	     92.38684732	     -2.68939052	      3.79172729	     85.02236814	      1.48392026	      3.91791326	     -8.80629996	      0.00000000	      0.00000000	    -62.97835106	      8.84567030	     37.65829314	     77.64595954	    -35.42908818	    -88.20079150	      6.23343219	      5.52421495	      0.00000000	      0.00000000	     89.88520805	     25.12748235	     15.39659928	     54.57036162	     15.10253011	      0.00000000	      0.00000000
      0.04000000	    -22.77991852	     -3.46206298	      2.67014389	      0.09950480	      1.13277883	     -0.27199728	      0.00000000	      0.50000000	      0.00000000	      0.25000000	     60.11906460	     -6.40568458	     -7.27842435	     70.67600123	      1.23352892	     12.50702965	     -2.31342074	      0.00000000	      0.00000000	     92.31136717	     -2.71647367	      3.76888477	     84.92997896	      1.48230777	      3.94294915	     -8.79632909	      0.00000000	      0.00000000	    -63.00620986	      8.83590171	     37.65013290	     77.66691871	    -35.39276907	    -88.26507118	      6.22612813	      5.87367877	      0.00000000	      0.00000000	     89.88573991	     25.11540060	     15.38617561	     54.39309980	     16.22527243	      0.00000000	      0.00000000
      0.04500000	    -22.71424918	     -3.45335244	      2.61797140	      0.09922154	      1.13289809	     -0.27193722	      0.00000000	      0.50000000	      0.00000000	      0.25000000	     60.10068529	     -6.38250897	     -7.26356691	     70.73472229	      1.23455380	     12.49363378	     -2.26558545	      0.00000000	      0.00000000	     92.20395795	     -2.77831306	      3.75465404	     84.85729949	      1.48103927	      4.01516800	     -8.78261120	      0.00000000	      0.00000000	    -63.08808835	      8.80087198	     37.64382789	     77.70967722	    -35.34582399	    -88.26657948	      6.39974816	      5.30717939	      0.00000000	      0.00000000	     89.88652734	     24.98441984	     15.54649339	     54.15808054	     17.67840375	      0.00000000	      0.00000000
      0.05000000	    -22.68784519	     -3.45262671	      2.58024926	      0.09894375	      1.13304275	     -0.27191151	      0.00000000	      0.50000000	      0.00000000	      0.25000000	     60.11179839	     -6.35605867	     -7.22631407	     70.76686114	      1.23511473	     12.47003240	     -2.26575006	      0.00000000	      0.00000000	     92.11129470	     -2.80782434	      3.76102811	     84.74130188	      1.47901473	      4.04536358	     -8.76272648	      0.00000000	      0.00000000	    -63.15832083	      8.75178221	     37.69066777	     77.83138728	    -35.46272534	    -88.29002455	      6.07163405	      6.27153601	      0.00000000	      0.00000000	     89.88593916	     25.10718879	     15.21862776	     54.01013478	     19.67956438	      0.00000000	      0.00000000
      0.05500000	    -22.59788432	     -3.44397391	      2.57149000	      0.09874395	      1.13323920	     -0.27181922	      0.00000000	      0.50000000	      0.00000000	      0.25000000	     60.04887499	     -6.37197286	     -7.25077108	     70.82069204	      1.23605425	     12.53412438	     -2.19325822	      0.00000000	      0.00000000	     91.97860408	     -2.86149437	      3.70164311	     84.66057901	      1.47760585	      4.10095281	     -8.76121147	      0.00000000	      0.00000000	    -63.22874029	      8.76235520	     37.64353238	     77.78570831	    -35.29770430	    -88.26918729	      6.47833491	      5.12133063	      0.00000000	      0.00000000	     89.88738312	     25.05836435	     15.20651685	     53.72267315	     20.18483340	      0.00000000	      0.00000000
